HIERARCHY
ROOT hip
{
  OFFSET 0 0 0
  CHANNELS 6 Xposition Yposition Zposition Zrotation Yrotation Xrotation
  JOINT abdomen
  {
    OFFSET 0 20.6881 -0.73152
    CHANNELS 3 Zrotation Xrotation Yrotation
    JOINT chest
    {
      OFFSET 0 11.7043 -0.48768
      CHANNELS 3 Zrotation Xrotation Yrotation
      JOINT neck
      {
        OFFSET 0 22.1894 -2.19456
        CHANNELS 3 Zrotation Xrotation Yrotation
        JOINT head
        {
          OFFSET -0.24384 7.07133 1.2192
          CHANNELS 3 Zrotation Xrotation Yrotation
          JOINT leftEye
          {
            OFFSET 4.14528 8.04674 8.04672
            CHANNELS 3 Zrotation Xrotation Yrotation
            End Site
            {
              OFFSET 1 0 0
            }
          }
          JOINT rightEye
          {
            OFFSET -3.6576 8.04674 8.04672
            CHANNELS 3 Zrotation Xrotation Yrotation
            End Site
            {
              OFFSET 1 0 0
            }
          }
        }
      }
      JOINT rCollar
      {
        OFFSET -2.68224 19.2634 -4.8768
        CHANNELS 3 Zrotation Xrotation Yrotation
        JOINT rShldr
        {
          OFFSET -8.77824 -1.95073 1.46304
          CHANNELS 3 Zrotation Xrotation Yrotation
          JOINT rForeArm
          {
            OFFSET -28.1742 -1.7115 0.48768
            CHANNELS 3 Zrotation Xrotation Yrotation
            JOINT rHand
            {
              OFFSET -22.5879 0.773209 7.07136
              CHANNELS 3 Zrotation Xrotation Yrotation
              JOINT rThumb1
              {
                OFFSET -1.2192 -0.487915 3.41376
                CHANNELS 3 Zrotation Xrotation Yrotation
                JOINT rThumb2
                {
                  OFFSET -3.37035 -0.52449 3.41376
                  CHANNELS 3 Zrotation Xrotation Yrotation
                  End Site
                  {
                    OFFSET -1.78271 -1.18214 1.43049
                  }
                }
              }
              JOINT rIndex1
              {
                OFFSET -7.75947 0.938293 5.60832
                CHANNELS 3 Zrotation Xrotation Yrotation
                JOINT rIndex2
                {
                  OFFSET -2.54057 -0.884171 1.56538
                  CHANNELS 3 Zrotation Xrotation Yrotation
                  End Site
                  {
                    OFFSET -1.62519 -0.234802 1.16502
                  }
                }
              }
              JOINT rMid1
              {
                OFFSET -8.24714 1.18213 3.41376
                CHANNELS 3 Zrotation Xrotation Yrotation
                JOINT rMid2
                {
                  OFFSET -3.10165 -0.590103 1.0647
                  CHANNELS 3 Zrotation Xrotation Yrotation
                  End Site
                  {
                    OFFSET -2.48547 -0.328903 0.83742
                  }
                }
              }
              JOINT rRing1
              {
                OFFSET -8.82822 0.546677 1.51678
                CHANNELS 3 Zrotation Xrotation Yrotation
                JOINT rRing2
                {
                  OFFSET -2.60934 -0.819778 -0.0198488
                  CHANNELS 3 Zrotation Xrotation Yrotation
                  End Site
                  {
                    OFFSET -2.33842 -0.294052 0.168128
                  }
                }
              }
              JOINT rPinky1
              {
                OFFSET -8.27202 -0.0477905 -0.4584
                CHANNELS 3 Zrotation Xrotation Yrotation
                JOINT rPinky2
                {
                  OFFSET -1.82734 -0.647385 -0.700984
                  CHANNELS 3 Zrotation Xrotation Yrotation
                  End Site
                  {
                    OFFSET -1.69225 -0.51767 -0.607171
                  }
                }
              }
            }
          }
        }
      }
      JOINT lCollar
      {
        OFFSET 2.68224 19.2634 -4.8768
        CHANNELS 3 Zrotation Xrotation Yrotation
        JOINT lShldr
        {
          OFFSET 8.77824 -1.95073 1.46304
          CHANNELS 3 Zrotation Xrotation Yrotation
          JOINT lForeArm
          {
            OFFSET 28.1742 -1.7115 0.48768
            CHANNELS 3 Zrotation Xrotation Yrotation
            JOINT lHand
            {
              OFFSET 22.5879 0.773209 7.07136
              CHANNELS 3 Zrotation Xrotation Yrotation
              JOINT lThumb1
              {
                OFFSET 1.2192 -0.487915 3.41376
                CHANNELS 3 Zrotation Xrotation Yrotation
                JOINT lThumb2
                {
                  OFFSET 3.37035 -0.52449 3.41376
                  CHANNELS 3 Zrotation Xrotation Yrotation
                  End Site
                  {
                    OFFSET 1.78271 -1.18214 1.43049
                  }
                }
              }
              JOINT lIndex1
              {
                OFFSET 7.75947 0.938293 5.60832
                CHANNELS 3 Zrotation Xrotation Yrotation
                JOINT lIndex2
                {
                  OFFSET 2.54057 -0.884171 1.56538
                  CHANNELS 3 Zrotation Xrotation Yrotation
                  End Site
                  {
                    OFFSET 1.62519 -0.234802 1.16502
                  }
                }
              }
              JOINT lMid1
              {
                OFFSET 8.24714 1.18213 3.41376
                CHANNELS 3 Zrotation Xrotation Yrotation
                JOINT lMid2
                {
                  OFFSET 3.10165 -0.590103 1.0647
                  CHANNELS 3 Zrotation Xrotation Yrotation
                  End Site
                  {
                    OFFSET 2.48547 -0.328903 0.83742
                  }
                }
              }
              JOINT lRing1
              {
                OFFSET 8.82822 0.546677 1.51678
                CHANNELS 3 Zrotation Xrotation Yrotation
                JOINT lRing2
                {
                  OFFSET 2.60934 -0.819778 -0.0198488
                  CHANNELS 3 Zrotation Xrotation Yrotation
                  End Site
                  {
                    OFFSET 2.33842 -0.294052 0.168128
                  }
                }
              }
              JOINT lPinky1
              {
                OFFSET 8.27202 -0.0477905 -0.4584
                CHANNELS 3 Zrotation Xrotation Yrotation
                JOINT lPinky2
                {
                  OFFSET 1.82734 -0.647385 -0.700984
                  CHANNELS 3 Zrotation Xrotation Yrotation
                  End Site
                  {
                    OFFSET 1.69225 -0.51767 -0.607171
                  }
                }
              }
            }
          }
        }
      }
    }
  }
  JOINT rButtock
  {
    OFFSET -8.77824 4.35084 1.2192
    CHANNELS 3 Zrotation Xrotation Yrotation
    JOINT rThigh
    {
      OFFSET 0 -1.70687 -2.19456
      CHANNELS 3 Zrotation Xrotation Yrotation
      JOINT rShin
      {
        OFFSET 0 -36.8199 0.73152
        CHANNELS 3 Zrotation Xrotation Yrotation
        JOINT rFoot
        {
          OFFSET 0.73152 -45.1104 -5.12064
          CHANNELS 3 Zrotation Xrotation Yrotation
          End Site
          {
            OFFSET -1.1221 -3.69964 12.103
          }
        }
      }
    }
  }
  JOINT lButtock
  {
    OFFSET 8.77824 4.35084 1.2192
    CHANNELS 3 Zrotation Xrotation Yrotation
    JOINT lThigh
    {
      OFFSET 0 -1.70687 -2.19456
      CHANNELS 3 Zrotation Xrotation Yrotation
      JOINT lShin
      {
        OFFSET 0 -36.8199 0.73152
        CHANNELS 3 Zrotation Xrotation Yrotation
        JOINT lFoot
        {
          OFFSET -0.73152 -45.1104 -5.12064
          CHANNELS 3 Zrotation Xrotation Yrotation
          End Site
          {
            OFFSET 1.1221 -3.69964 12.103
          }
        }
      }
    }
  }
}
MOTION
Frames:	4
Frame Time:	0.03333
10.558046788252605 57.787648755971624 -54.62376698117358 2.269333600997925 -0.754154622554779 9.956106185913086 -1.9683138132095337 16.2847843170166 -9.212523460388184 5.896814823150635 -8.566643714904785 -2.652967929840088 -3.048909902572632 11.924761772155762 0.8874269723892212 0.606325626373291 -32.94314956665039 1.822618007659912 -0.23718559741973877 0.36425402760505676 -0.13053840398788452 0.06683489680290222 -0.38827627897262573 0.1540408581495285 -0.1681535392999649 -0.11955674737691879 -0.04683193936944008 92.48149871826172 51.43375778198242 -29.723770141601562 -28.983747482299805 -37.168819427490234 79.11002349853516 -14.044035911560059 -68.74885559082031 -20.228897094726562 -0.3346628248691559 0.3292028605937958 0.1038127914071083 0.34778860211372375 0.12172076106071472 -0.47585293650627136 -0.06444363296031952 -0.3084007799625397 0.19423942267894745 7.352571964263916 5.592130661010742 0.7474384903907776 0.6833595633506775 0.43014758825302124 -0.40859147906303406 3.366337776184082 1.079045295715332 -0.15604349970817566 0.18907669186592102 -0.4187249541282654 0.03928577899932861 10.803062438964844 0.7242203950881958 0.16514207422733307 -0.44347506761550903 0.25817281007766724 0.05679434910416603 1.8237638473510742 -0.6131622791290283 -0.010170737281441689 -0.7011649012565613 0.39857006072998047 0.022993210703134537 -40.2343864440918 -8.333526611328125 -71.84030151367188 13.401455879211426 -7.793393135070801 -23.369382858276367 0.23064926266670227 15.757396697998047 -1.5216927528381348 0.20407357811927795 0.029740147292613983 0.2115536779165268 -0.019810467958450317 -0.3952272832393646 -0.002232419792562723 0.2960864007472992 -0.016882672905921936 0.4494636356830597 -7.652563095092773 5.1548171043396 -0.26461413502693176 0.11993663758039474 0.17771588265895844 0.10936515778303146 -2.446767568588257 0.39789676666259766 0.014150025323033333 0.10365069657564163 0.21708954870700836 0.23713484406471252 -10.210355758666992 0.6904698014259338 -0.06627723574638367 -0.027002351358532906 -0.07750939577817917 0.05029759556055069 -2.1067864894866943 -0.4882246255874634 0.05686061829328537 0.15374194085597992 -0.316795289516449 0.42380183935165405 -25.892608642578125 -56.33266830444336 -33.1425666809082 -2.5802738666534424 76.19646453857422 3.015416383743286 -8.835829734802246 -13.560086250305176 -20.86431312561035 -0.10412708669900894 -0.017391957342624664 -0.15214671194553375 10.75732135772705 -28.15887451171875 21.6945858001709 166.84100341796875 88.1624984741211 -168.44918823242188 5.916618824005127 -12.644317626953125 23.58891487121582
11.032883673786007 57.66068236949025 -56.67096613416658 2.6943936347961426 1.2566707134246826 10.259889602661133 -2.8413329124450684 15.230929374694824 -9.986062049865723 6.277461528778076 -8.558977127075195 -3.0365703105926514 -3.111032724380493 11.96076488494873 0.45443397760391235 0.8200811147689819 -32.282325744628906 1.103554129600525 -0.17385829985141754 0.35894548892974854 -0.15614008903503418 0.02317199297249317 -0.4446764588356018 0.05720176175236702 -0.054274123162031174 -0.21159513294696808 -0.04158820956945419 89.80078125 51.22160339355469 -26.25119400024414 -28.32240104675293 -38.6588020324707 82.76223754882812 -12.959090232849121 -67.42568969726562 -19.03110122680664 -0.3957471549510956 0.41495031118392944 0.1706775426864624 0.32494089007377625 0.23953047394752502 -0.34653130173683167 -0.08368755131959915 -0.2759972810745239 0.14500635862350464 7.426942348480225 5.548142433166504 0.7882322669029236 0.7669098377227783 0.3545842468738556 -0.378549724817276 3.4016010761260986 1.0230835676193237 -0.1436375379562378 0.23526743054389954 -0.33552172780036926 0.08503428101539612 10.759021759033203 0.691498339176178 0.16122043132781982 -0.4485383629798889 0.18129655718803406 0.06198197603225708 1.8303531408309937 -0.5310965776443481 0.02321075089275837 -0.7217289805412292 0.4080464541912079 0.05118007957935333 -38.20037078857422 -6.33384895324707 -72.06713104248047 13.422985076904297 -8.08842658996582 -23.455059051513672 0.30052635073661804 16.653396606445312 -1.769518256187439 0.3428976237773895 0.14299719035625458 0.2304294854402542 -0.0015138400485739112 -0.43567389249801636 0.09041405469179153 0.263156533241272 -0.073835588991642 0.44796761870384216 -7.607597351074219 5.291061878204346 -0.28325602412223816 0.15019914507865906 0.16468040645122528 0.07102340459823608 -2.3713107109069824 0.41385766863822937 0.029724963009357452 0.04173075035214424 0.17370544373989105 0.2835733890533447 -10.319823265075684 0.6936666965484619 0.040262751281261444 -0.07887047529220581 -0.0630669817328453 0.06434708088636398 -2.0574698448181152 -0.5654927492141724 0.047935958951711655 0.15719228982925415 -0.3410848081111908 0.3419056236743927 -31.426786422729492 -57.62685775756836 -38.7741813659668 -2.4552175998687744 76.10847473144531 2.7608022689819336 -7.92789888381958 -12.426466941833496 -19.759878158569336 -0.05464468151330948 0.0036932812072336674 -0.0740763396024704 10.239777565002441 -20.58016014099121 19.458553314208984 6.9163103103637695 87.16931915283203 -8.73476505279541 6.18961238861084 -13.1056547164917 25.139657974243164
11.497047534967619 57.778298226997876 -58.62061311033886 3.1670949459075928 3.4698586463928223 10.555540084838867 -3.6471076011657715 14.083571434020996 -10.619972229003906 6.607437610626221 -8.629867553710938 -3.279994249343872 -3.0914220809936523 11.971280097961426 0.17368191480636597 0.8917102217674255 -31.438684463500977 0.6189654469490051 -0.11001696437597275 0.35395070910453796 -0.1856955885887146 0.004757867194712162 -0.4737979769706726 -0.05412716418504715 0.0011545853922143579 -0.3184441030025482 -0.043640922755002975 86.45537567138672 51.36064529418945 -21.81711769104004 -27.306575775146484 -41.30176544189453 88.18133544921875 -12.290964126586914 -66.4144515991211 -18.32267189025879 -0.3988032042980194 0.49215689301490784 0.1896977573633194 0.2855457067489624 0.38771551847457886 -0.22046144306659698 -0.12421556562185287 -0.21151253581047058 0.13488343358039856 7.520158290863037 5.479830265045166 0.7556955814361572 0.7935425043106079 0.292029470205307 -0.3596879243850708 3.4293019771575928 0.9730362892150879 -0.14919345080852509 0.26090213656425476 -0.24839118123054504 0.13391202688217163 10.676255226135254 0.6881611347198486 0.12030231207609177 -0.3640097677707672 0.13823245465755463 0.062346819788217545 1.8548829555511475 -0.4468688368797302 0.04607813060283661 -0.7251598238945007 0.3541494309902191 0.133432999253273 -35.89299011230469 -4.088150501251221 -72.84432983398438 13.679475784301758 -8.427850723266602 -24.153301239013672 0.43135252594947815 18.474332809448242 -2.2831525802612305 0.44640710949897766 0.2358947992324829 0.21794168651103973 0.07720816135406494 -0.5138644576072693 0.15841339528560638 0.22080953419208527 -0.21849633753299713 0.39915600419044495 -7.588446617126465 5.438724517822266 -0.2906613051891327 0.17384396493434906 0.1610429733991623 0.05604301765561104 -2.3417625427246094 0.4337463676929474 0.04352615773677826 -0.027398906648159027 0.15955308079719543 0.30633044242858887 -10.443117141723633 0.7132593393325806 0.12024908512830734 -0.11795973777770996 -0.032173287123441696 0.03889531269669533 -2.0345277786254883 -0.6027792692184448 0.039160702377557755 0.1705842912197113 -0.3290526270866394 0.2649123966693878 -37.92167282104492 -58.38146209716797 -45.59672927856445 -2.3843185901641846 76.56050872802734 2.5625157356262207 -7.190408706665039 -11.39332389831543 -19.197120666503906 -0.07287680357694626 -0.008471283130347729 0.028279533609747887 10.350702285766602 -13.364025115966797 17.41061019897461 1.7432271242141724 80.84971618652344 -3.7473325729370117 6.177012920379639 -13.09337043762207 26.1090030670166
11.973237224843507 57.35788642320525 -60.497657096624614 3.792952299118042 6.092465400695801 10.876055717468262 -4.294609546661377 12.93011474609375 -11.333189964294434 6.892651557922363 -8.76873779296875 -3.4418728351593018 -3.026474952697754 11.98588752746582 -0.19215773046016693 0.8485912084579468 -30.65903091430664 0.008982396684587002 -0.057995133101940155 0.32194674015045166 -0.1621371954679489 0.05711188539862633 -0.47452598810195923 -0.15199413895606995 0.03133217990398407 -0.41659611463546753 -0.04154718667268753 81.8287353515625 51.38927459716797 -15.952652931213379 -25.93194580078125 -44.55328369140625 94.43326568603516 -11.587040901184082 -65.26717376708984 -17.561609268188477 -0.36166590452194214 0.5615626573562622 0.18715806305408478 0.23060943186283112 0.49941331148147583 -0.08998233079910278 -0.14886081218719482 -0.12426037341356277 0.07693304866552353 7.582183837890625 5.409356117248535 0.6260885000228882 0.7450613975524902 0.2204110473394394 -0.31685566902160645 3.4410934448242188 0.9479761123657227 -0.18399986624717712 0.2606288492679596 -0.16566696763038635 0.17923980951309204 10.565288543701172 0.6832587122917175 0.0626109167933464 -0.22640067338943481 0.11984726041555405 0.02701515704393387 1.901745319366455 -0.3317701816558838 0.05155843868851662 -0.7113946676254272 0.2640721797943115 0.23010197281837463 -33.43120574951172 -1.3389583826065063 -74.0171890258789 14.137782096862793 -8.850812911987305 -25.22884178161621 0.5102090835571289 20.616884231567383 -2.8735969066619873 0.49428513646125793 0.2963886857032776 0.22203116118907928 0.17532490193843842 -0.6152434349060059 0.22201760113239288 0.1462324559688568 -0.3861882984638214 0.3292364478111267 -7.543878078460693 5.564826488494873 -0.2768406271934509 0.15325859189033508 0.18978680670261383 0.03588740527629852 -2.316838502883911 0.47524258494377136 0.031894437968730927 -0.06705038249492645 0.15164175629615784 0.3236544132232666 -10.546768188476562 0.7681885957717896 0.158259779214859 -0.15703615546226501 0.012951090931892395 0.023143203929066658 -2.052048683166504 -0.5900245904922485 0.01721864752471447 0.18704992532730103 -0.2865806818008423 0.1481037139892578 -44.68976593017578 -58.57913589477539 -52.946632385253906 -2.270078420639038 77.03327178955078 2.2940783500671387 -6.652519702911377 -10.25975227355957 -19.10007095336914 -0.1323026567697525 -0.04303717613220215 0.12247322499752045 10.673333168029785 -6.550511837005615 15.301019668579102 0.7958613634109497 73.34352111816406 -3.013855457305908 5.912924289703369 -12.756726264953613 26.668397903442383
